<svg data-name="Layer 1" xmlns="http://www.w3.org/2000/svg" width="1074.392" height="584.231"><ellipse cx="540.643" cy="549.309" rx="527.5" ry="34.922" fill="rgba(233,233,233,0.856)"/><path d="M520.426 167.01c-85.944 0-147.651 55.14-147.651 183.798 0 145.813 61.707 184.41 147.65 184.41s151.328-42.273 151.328-184.41c0-151.94-65.383-183.798-151.327-183.798zm.565 319.808c-59.527 0-90.626-34.923-90.626-135.916 0-89.112 32.372-136.105 91.899-136.105s91.899 30.868 91.899 136.105c0 98.447-33.646 135.916-93.172 135.916z" fill="#2f2e41"/><path d="M540.03 155.982c-85.943 0-147.65 55.14-147.65 183.798 0 145.813 61.707 184.41 147.65 184.41s151.328-42.273 151.328-184.41c0-151.94-65.383-183.798-151.327-183.798zm.566 319.808c-59.527 0-90.626-34.923-90.626-135.916 0-89.112 32.372-136.105 91.899-136.105s91.899 30.868 91.899 136.105c0 98.447-33.645 135.916-93.172 135.916z" fill="none" stroke="#2f2e41" stroke-miterlimit="10"/><path d="M321.311 433.517h-35.534v-104.64a20.956 20.956 0 00-20.956-20.956h-8.326a20.956 20.956 0 00-20.956 20.956v104.64h-100.23a11.963 11.963 0 01-10.578-17.552l106.083-200.78a20.956 20.956 0 00-9.58-28.74l-6.263-2.957a20.956 20.956 0 00-27.43 9.07L58.162 434.591a28.416 28.416 0 00-3.357 13.396 28.416 28.416 0 0028.416 28.416H235.54v66.167a25.119 25.119 0 0025.119 25.12 25.119 25.119 0 0025.119-25.12v-66.167h35.534a21.443 21.443 0 0021.443-21.443 21.443 21.443 0 00-21.443-21.443zm657.997 0h-35.534v-104.64a20.956 20.956 0 00-20.956-20.956h-8.327a20.956 20.956 0 00-20.956 20.956v104.64h-100.23a11.963 11.963 0 01-10.577-17.552l106.082-200.78a20.956 20.956 0 00-9.58-28.74l-6.263-2.957a20.956 20.956 0 00-27.429 9.07L716.157 434.591a28.416 28.416 0 00-3.356 13.396 28.416 28.416 0 0028.416 28.416h152.318v66.167a25.119 25.119 0 0025.12 25.12 25.119 25.119 0 0025.118-25.12v-66.167h35.535a21.443 21.443 0 0021.443-21.443 21.443 21.443 0 00-21.443-21.443z" fill="#fd2680"/><path d="M331.114 421.264H295.58v-104.64a20.956 20.956 0 00-20.956-20.956h-8.327a20.956 20.956 0 00-20.956 20.956v104.64h-100.23a11.963 11.963 0 01-10.577-17.552l106.082-200.78a20.956 20.956 0 00-9.58-28.74l-6.263-2.957a20.956 20.956 0 00-27.429 9.07L67.963 422.338a28.416 28.416 0 00-3.356 13.396h0a28.416 28.416 0 0028.416 28.416H245.34v66.167a25.119 25.119 0 0025.12 25.119h0a25.119 25.119 0 0025.119-25.12V464.15h35.534a21.443 21.443 0 0021.443-21.443h0a21.443 21.443 0 00-21.443-21.443zm666.574 0h-35.535v-104.64a20.956 20.956 0 00-20.956-20.956h-8.326a20.956 20.956 0 00-20.956 20.956v104.64h-100.23a11.963 11.963 0 01-10.577-17.552l106.082-200.78a20.956 20.956 0 00-9.58-28.74l-6.263-2.957a20.956 20.956 0 00-27.43 9.07l-129.38 242.033a28.416 28.416 0 00-3.356 13.396h0a28.416 28.416 0 0028.415 28.416h152.32v66.167a25.119 25.119 0 0025.118 25.119h0a25.119 25.119 0 0025.12-25.12V464.15h35.534a21.443 21.443 0 0021.443-21.443h0a21.443 21.443 0 00-21.443-21.443z" fill="none" stroke="#fd2680" stroke-miterlimit="10"/></svg>